<?xml version="1.0" encoding="iso-8859-1"?>
<!-- Generator: Adobe Illustrator 19.0.0, SVG Export Plug-In . SVG Version: 6.00 Build 0)  -->
<svg version="1.1" id="Capa_1" xmlns="http://www.w3.org/2000/svg" xmlns:xlink="http://www.w3.org/1999/xlink" x="0px" y="0px"
	 viewBox="0 0 512 512" style="enable-background:new 0 0 512 512;" xml:space="preserve">
<path style="fill:#EDBB57;" d="M512,256c0,141.385-114.615,256-256,256c-25.067,0-49.309-3.605-72.202-10.334
	c-2.539-0.742-5.057-1.515-7.555-2.341c-12.81-4.19-25.172-9.373-37-15.454c-2.508-1.275-4.995-2.602-7.45-3.971
	c-41.963-23.322-76.685-58.107-99.924-100.122c-1.369-2.456-2.685-4.942-3.96-7.45c-6.05-11.818-11.191-24.158-15.36-36.948
	c-0.815-2.497-1.599-5.016-2.33-7.555C3.563,305.037,0,280.942,0,256C0,114.615,114.615,0,256,0S512,114.615,512,256z"/>
<circle style="fill:#F4D984;" cx="256" cy="192.784" r="184.947"/>
<path style="fill:#9E5329;" d="M323.532,340.971c-11.849,11.849-22.486,19.289-33.207,24.273
	c-4.984,2.863-14.033,9.571-19.08,22.444c-1.745,4.483-8.025,4.524-9.885,0.115c-0.345-0.784-0.564-1.317-0.679-1.442
	c-1.087-2.57-2.664-4.639-4.796-6.092c-11.201-7.638-33.061,4.963-48.859,28.118c-15.768,23.165-19.498,48.138-8.296,55.766
	c1.317,0.909,5.642,2.842,9.874,4.66c3.009,1.306,3.469,5.099,1.421,7.137c-0.397,0.418-0.92,0.742-1.515,0.972
	c-11.295,4.535-20.323,13.469-24.712,24.743c-2.539-0.742-5.057-1.515-7.555-2.341c-77.354-25.328-138.47-86.528-163.694-163.944
	c-0.815-2.497-1.599-5.016-2.33-7.555c5.548-2.194,10.522-5.517,14.66-9.665c4.242-4.242,7.596-9.341,9.864-14.994
	c1.452-3.636,6.562-3.688,8.119-0.115c1.829,4.274,3.772,8.6,4.65,9.895c7.649,11.212,32.611,7.492,55.766-8.297
	c23.176-15.778,35.767-37.669,28.139-48.859c-1.452-2.121-3.532-3.72-6.102-4.786c-0.115-0.104-0.648-0.324-1.432-0.69
	c-4.42-1.86-4.378-8.129,0.094-9.895c12.915-5.005,19.592-14.075,22.465-19.069c4.953-10.721,12.413-21.358,24.263-33.207
	c27-27,75.118-22.068,113.612,5.141l34.064,34.074C345.569,265.885,350.511,313.981,323.532,340.971z"/>
<path style="fill:#AF653D;" d="M317.942,335.381c-10.595,10.595-20.438,17.815-30.95,22.706l-0.293,0.125l-0.282,0.167
	c-5.193,2.968-14.158,9.467-20.281,21.42c-0.836-1.348-1.818-2.56-2.905-3.647c-0.878-0.888-1.849-1.693-2.894-2.403
	c-8.056-5.507-19.101-4.733-31.107,2.173c-10.24,5.893-20.428,15.841-28.735,28.014c-17.241,25.328-21.065,52.391-9.112,64.345
	c0.888,0.888,1.87,1.693,2.894,2.403c0.7,0.481,1.787,1.118,4.315,2.33c-10.313,5.998-18.192,15.245-22.35,26.311
	c-77.354-25.328-138.47-86.528-163.694-163.944c6.666-2.539,12.821-6.531,17.92-11.64c3.197-3.187,5.945-6.75,8.213-10.648
	c1.17,2.497,1.808,3.584,2.299,4.305c0.711,1.034,1.515,1.996,2.403,2.884c11.975,11.985,39.027,8.15,64.345-9.091
	c17.91-12.194,30.668-28.39,33.301-42.287c1.264-6.677,0.188-12.758-3.093-17.565c-0.7-1.045-1.494-1.996-2.382-2.884
	c-1.097-1.097-2.33-2.069-3.678-2.915c11.901-6.071,18.432-15.047,21.42-20.24l0.178-0.303l0.136-0.324
	c4.848-10.48,12.048-20.302,22.685-30.939c22.674-22.685,65.87-20.281,102.922,5.622l33.081,33.102
	C338.192,269.531,340.595,312.738,317.942,335.381z"/>
<g>
	
		<rect x="440.296" y="18.175" transform="matrix(-0.7064 -0.7078 0.7078 -0.7064 752.3536 360.3304)" style="fill:#4D4D4D;" width="21.224" height="11.91"/>
	
		<rect x="434.743" y="89.711" transform="matrix(-0.7071 -0.7071 0.7071 -0.7071 693.3789 478.5394)" style="fill:#4D4D4D;" width="22.11" height="11.91"/>
	<path style="fill:#4D4D4D;" d="M427.537,71.19L416.11,59.763c-2.326-2.326-2.326-6.096,0-8.422l0,0
		c2.326-2.325,6.096-2.325,8.421,0l11.428,11.427L427.537,71.19z"/>
</g>
<path style="fill:#808080;" d="M101.366,433.204l-14.744,14.744c-8.108-7.147-15.747-14.806-22.873-22.925L78.472,410.3
	L101.366,433.204z"/>
<polygon style="fill:#353434;" points="242.686,309.954 201.719,268.976 443.368,44.143 467.531,68.305 "/>
<path style="fill:#DDDAE0;" d="M174.966,377.098l-40.392-40.392c-2.041-2.041-2.041-5.348,0-7.388l0.85-0.849
	c2.041-2.041,5.348-2.041,7.388,0l40.392,40.392c2.041,2.041,2.041,5.348,0,7.388l-0.85,0.849
	C180.315,379.138,177.007,379.138,174.966,377.098z"/>
<g>
	<path style="fill:#AF653D;" d="M430.242,2.451c5.276-5.276,17.948-1.157,23.224,4.119s1.157,9.71-4.119,14.986
		s-9.71,9.395-14.986,4.119C429.086,20.4,424.966,7.727,430.242,2.451z"/>
	<path style="fill:#AF653D;" d="M398.731,33.962c5.276-5.276,17.948-1.157,23.224,4.119c5.276,5.276,1.157,9.71-4.119,14.986
		s-9.71,9.395-14.986,4.119S393.455,39.238,398.731,33.962z"/>
	<path style="fill:#AF653D;" d="M509.547,81.756c5.276-5.276,1.157-17.948-4.119-23.224c-5.276-5.276-9.71-1.157-14.986,4.119
		c-5.276,5.276-9.395,9.71-4.119,14.986C491.598,82.912,504.271,87.032,509.547,81.756z"/>
	<path style="fill:#AF653D;" d="M470.876,120.427c5.276-5.276,1.157-17.948-4.119-23.224c-5.276-5.276-9.71-1.157-14.986,4.119
		c-5.276,5.276-9.395,9.71-4.119,14.986C452.928,121.582,465.6,125.701,470.876,120.427z"/>
</g>
<g>
	<polygon style="fill:#FFFFFF;" points="127.032,374.329 124.804,372.125 151.374,345.28 452.076,51.718 454.266,53.961 
		153.583,347.505 	"/>
	<polygon style="fill:#FFFFFF;" points="118.876,366.003 116.484,363.975 141.115,334.945 446.74,46.345 448.892,48.624 
		143.331,337.165 	"/>
	<polygon style="fill:#FFFFFF;" points="139.226,386.547 137.022,384.32 163.866,357.749 457.392,57.086 459.635,59.276 
		166.091,359.958 	"/>
	<polygon style="fill:#FFFFFF;" points="147.377,394.867 145.349,392.476 174.188,368.022 462.729,62.46 465.008,64.611 
		176.347,370.3 	"/>
</g>
<g>
	<path style="fill:#353434;" d="M99.568,350.103c-0.251,0.418-0.554,0.826-0.92,1.191c-2.236,2.247-5.883,2.247-8.129,0
		c-2.247-2.247-2.247-5.883,0-8.129c1.86-1.86,4.681-2.173,6.875-0.951c1.003-2.873,0.867-5.757-1.546-8.171
		c-8.307-8.317-36.133,19.508-41.733,25.109c-5.413,5.413-2.56,9.31-2.361,9.571c-5.026-1.975-8.808,0-19.884,11.055
		c-1.369-2.456-2.685-4.942-3.96-7.45c5.068-4.493,9.216-8.641,11.034-10.459c5.413-5.413,2.55-9.31,2.351-9.571
		c5.068,1.975,8.861-0.021,20.052-11.212c11.201-11.201,29.09-17.523,37.763-8.85C106.015,339.143,101.637,347.126,99.568,350.103z"
		/>
	<path style="fill:#353434;" d="M170.58,450.33c-11.191,11.191-13.187,14.984-11.212,20.041c-0.261-0.199-4.148-3.051-9.561,2.361
		c-1.829,1.829-6.029,6.029-10.564,11.139c-2.508-1.275-4.995-2.602-7.45-3.971c11.149-11.149,13.124-14.942,11.16-19.989
		c0.261,0.199,4.148,3.051,9.561-2.361c5.601-5.601,33.426-33.426,25.119-41.733c-2.414-2.414-5.298-2.55-8.182-1.536
		c1.223,2.184,0.909,5.005-0.951,6.865c-2.247,2.247-5.883,2.247-8.129,0s-2.247-5.883,0-8.129c0.366-0.366,0.773-0.669,1.202-0.909
		c2.967-2.069,10.961-6.447,17.857,0.46C188.103,421.24,181.781,439.129,170.58,450.33z"/>
</g>
<rect x="476.921" y="54.799" transform="matrix(-0.7071 -0.7071 0.7071 -0.7071 789.3193 448.4536)" style="fill:#4D4D4D;" width="21.232" height="11.91"/>
<path style="fill:#AF653D;" d="M495.781,42.665c0.905,0.893,0.905,2.358,0,3.263l-11.54,11.54l-11.517,11.528
	c-0.905,0.893-12.934,11.457-13.839,10.564l-26.772-26.785c-0.905-0.893,9.659-12.922,10.564-13.827l11.528-11.528l11.54-11.54
	c0.893-0.893,2.358-0.893,3.263,0L495.781,42.665z"/>
<polygon style="fill:#808080;" points="152.167,399.476 112.757,425.639 101.373,433.202 78.472,410.301 86.034,398.916 
	112.197,359.505 "/>
<polygon style="fill:#60605F;" points="112.757,425.639 101.373,433.202 78.472,410.301 86.034,398.916 "/>
<rect x="-18.278" y="280.491" transform="matrix(-0.7071 -0.7071 0.7071 -0.7071 97.6491 611.8779)" style="fill:#DDDAE0;" width="387.653" height="10.449"/>
<g>
	<path style="fill:#353434;" d="M34.794,152.359c-0.946-0.946-1.53-2.252-1.531-3.695c0-2.885,2.34-5.224,5.224-5.224h30.24
		l302.984,302.984c2.04,2.04,2.041,5.348,0,7.388c-2.041,2.041-5.349,2.04-7.388,0L64.401,153.889H38.489
		C37.046,153.888,35.74,153.304,34.794,152.359z"/>
	<path style="fill:#353434;" d="M308.171,428.69c-2.04-2.04-2.041-5.348,0-7.388l15.516-15.516c2.041-2.041,5.349-2.04,7.388,0
		s2.041,5.348,0,7.388l-15.516,15.516C313.518,430.731,310.21,430.731,308.171,428.69z"/>
</g>
<g>
</g>
<g>
</g>
<g>
</g>
<g>
</g>
<g>
</g>
<g>
</g>
<g>
</g>
<g>
</g>
<g>
</g>
<g>
</g>
<g>
</g>
<g>
</g>
<g>
</g>
<g>
</g>
<g>
</g>
</svg>
