<?xml version="1.0" encoding="iso-8859-1"?>
<!-- Generator: Adobe Illustrator 19.0.0, SVG Export Plug-In . SVG Version: 6.00 Build 0)  -->
<svg version="1.1" id="Capa_1" xmlns="http://www.w3.org/2000/svg" xmlns:xlink="http://www.w3.org/1999/xlink" x="0px" y="0px"
	 viewBox="0 0 512.005 512.005" style="enable-background:new 0 0 512.005 512.005;" xml:space="preserve">
<path style="fill:#F45367;" d="M512,256.005c0,141.385-114.615,256-256,256c-31.305,0-61.304-5.622-89.025-15.914
	C92.338,468.412,34.116,406.92,10.93,330.214c-7.116-23.489-10.93-48.4-10.93-74.209c0-141.385,114.615-256,256-256
	S512,114.62,512,256.005z"/>
<circle style="fill:#FC7385;" cx="256" cy="192.789" r="184.947"/>
<g>
	<path style="fill:#EDBB57;" d="M440.635,25.707c-3.103,3.103-14.189-2.949-17.292-6.052c-3.103-3.103,2.949-2.084,6.052-5.187
		c3.103-3.103,2.084-9.156,5.187-6.052C437.686,11.518,443.739,22.602,440.635,25.707z"/>
	<path style="fill:#EDBB57;" d="M429.261,44.593c-3.103,3.103-14.189-2.949-17.292-6.052c-3.103-3.103,2.949-2.084,6.052-5.187
		c3.103-3.103,2.084-9.156,5.187-6.052C426.313,30.404,432.366,41.49,429.261,44.593z"/>
	<path style="fill:#EDBB57;" d="M411.105,56.409c-3.103,3.103-14.189-2.949-17.292-6.052c-3.103-3.103,2.949-2.084,6.052-5.187
		c3.103-3.103,2.084-9.156,5.187-6.052C408.156,42.221,414.21,53.305,411.105,56.409z"/>
	<path style="fill:#EDBB57;" d="M485.069,70.14c-3.103,3.103,2.949,14.189,6.052,17.292c3.103,3.103,2.083-2.949,5.187-6.052
		s9.156-2.084,6.052-5.187C499.257,73.089,488.173,67.036,485.069,70.14z"/>
	<path style="fill:#EDBB57;" d="M466.182,81.514c-3.103,3.103,2.949,14.189,6.052,17.292c3.103,3.103,2.084-2.949,5.187-6.052
		c3.103-3.103,9.156-2.084,6.052-5.187C480.37,84.462,469.285,78.409,466.182,81.514z"/>
	<path style="fill:#EDBB57;" d="M454.366,99.67c-3.103,3.103,2.949,14.189,6.052,17.292c3.103,3.103,2.083-2.949,5.187-6.052
		c3.103-3.103,9.156-2.084,6.052-5.187C468.554,102.618,457.469,96.566,454.366,99.67z"/>
</g>
<path style="fill:#353434;" d="M284.62,331.896l-31.671,62.161c-2.748,5.413-9.592,7.137-14.629,3.751
	c-5.935-3.981-15.454-6.405-29.602,0.272c-25.182,11.901-35.944,53.624-40.5,92.358c-0.23,1.933-0.648,3.835-1.243,5.653
	C92.338,468.412,34.116,406.92,10.93,330.214c46.31-9.415,129.766-29.696,127.676-61.2c-0.951-14.273-7.805-22.298-16.3-26.728
	c-2.56-1.317-2.393-5.026,0.251-6.175l88.963-38.4c4.033-1.745,7.565,3.26,4.577,6.489c-17.168,18.505-41.9,49.403-29.383,62.234
	c8.485,8.714,19.383,3.803,26.708-1.452l8.359,48.525l-0.01,0.021c-4.368,5.413-15.548,22.225,2.341,34.126
	c16.133,10.731,36.885-4.201,54.471-20.355C281.747,324.394,286.574,328.072,284.62,331.896z"/>
<path style="fill:#EDBB57;" d="M165.503,388.326l-19.201,18.714c-1.216,1.185-3.163,1.16-4.348-0.055l-41.483-42.563
	c-1.185-1.216-1.16-3.163,0.055-4.348l19.201-18.714c1.216-1.185,3.163-1.16,4.348,0.055l41.483,42.563
	C166.744,385.193,166.719,387.14,165.503,388.326z"/>
<path style="fill:#353434;" d="M451.208,110.639l-2.689,6.078l-3.969-4.072c-6.666-6.839-17.162-7.721-24.883-2.559
	c-0.916,0.605-1.798,1.297-2.62,2.084c-0.087,0.069-0.172,0.156-0.251,0.233l-2.559,2.628l-16.497,16.997l-5.118,5.274
	l-16.514,16.997l-5.11,5.265l-16.505,16.989l-5.118,5.274l-16.505,17.007l-5.11,5.265l-18.761,19.315l-5.11,5.265l-12.208,12.571
	l-5.101,5.257l-12.209,12.571l-5.11,5.265l-12.208,12.571l-5.118,5.257l-12.199,12.563l-5.118,5.274l-12.199,12.563l-5.11,5.265
	l-16.159,16.643l-29.612-30.391l16.972-15.796l5.378-4.998l12.814-11.932l5.378-4.998l12.822-11.94l5.378-4.998l12.814-11.932
	l5.378-4.998l12.814-11.932l5.378-4.998l12.83-11.932l5.36-4.998l19.713-18.346l5.378-4.998l17.353-16.142l5.369-5.006
	l17.343-16.133l5.36-4.998l17.353-16.142l5.378-4.998l17.343-16.15l2.68-2.49c0.9-0.882,1.695-1.816,2.387-2.801
	c5.36-7.591,4.755-18.105-1.911-24.944l-3.977-4.08l6.155-2.524c8.827-3.639,16.712-8.965,23.283-15.537
	c9.622-9.622,16.445-21.926,19.341-35.595L475.821,0c-16.566,16.271-21.943,37.661-11.983,47.881
	c9.952,10.211,31.48,5.386,48.167-10.747L503.42,69.34C480.293,73.617,460.727,89.103,451.208,110.639z"/>
<g>
	<polygon style="fill:#EAC76C;" points="392.623,137.303 372.721,116.881 378.098,111.885 397.742,132.029 	"/>
	<polygon style="fill:#EAC76C;" points="371,159.566 350.008,138.021 355.368,133.024 376.109,154.301 	"/>
	<polygon style="fill:#EAC76C;" points="349.377,181.83 327.295,159.16 332.665,154.154 354.495,176.555 	"/>
	<polygon style="fill:#EAC76C;" points="327.762,204.101 304.565,180.299 309.942,175.301 332.872,198.836 	"/>
	<polygon style="fill:#EAC76C;" points="303.89,228.681 279.492,203.643 284.852,198.646 309,223.416 	"/>
	<polygon style="fill:#EAC76C;" points="286.582,246.509 261.284,220.572 266.662,215.574 291.683,241.252 	"/>
	<polygon style="fill:#EAC76C;" points="269.263,264.346 243.093,237.5 248.47,232.503 274.374,259.08 	"/>
	<polygon style="fill:#EAC76C;" points="251.937,282.174 224.901,254.43 230.279,249.432 257.056,276.917 	"/>
	<polygon style="fill:#EAC76C;" points="234.62,300.01 206.702,271.366 212.08,266.37 239.738,294.736 	"/>
	<polygon style="fill:#EAC76C;" points="217.311,317.838 188.512,288.295 193.889,283.298 222.421,312.573 	"/>
</g>
<circle style="fill:#EDBB57;" cx="146.38" cy="439.886" r="9.523"/>
<path style="fill:#353434;" d="M451.208,110.639l-2.689,6.078l-3.969-4.072c-6.666-6.839-17.162-7.721-24.883-2.559
	c-0.916,0.605-1.798,1.297-2.62,2.084l-18.926-18.926c0.9-0.882,1.695-1.816,2.387-2.801c5.36-7.591,4.755-18.105-1.911-24.944
	l-3.977-4.08l6.155-2.524c8.827-3.639,16.712-8.965,23.283-15.537c9.622-9.622,16.445-21.926,19.341-35.595l32.414-7.755
	c-16.566,16.271-21.943,37.661-11.983,47.881c9.952,10.211,31.48,5.386,48.167-10.747l-8.585,32.206
	C480.293,73.617,460.727,89.103,451.208,110.639z"/>
<path style="fill:#EAC76C;" d="M416.798,112.403l-2.559,2.628l-18.797-19.297l2.68-2.49c0.9-0.882,1.695-1.816,2.387-2.801
	l19.159,19.643C418.656,110.752,417.696,111.521,416.798,112.403z"/>
<g>
	
		<rect x="243.424" y="28.268" transform="matrix(-0.6828 -0.7306 0.7306 -0.6828 234.3698 588.755)" style="fill:#FFFFFF;" width="3.135" height="430.465"/>
	
		<rect x="250.349" y="35.496" transform="matrix(-0.6908 -0.723 0.723 -0.6908 244.2758 606.9869)" style="fill:#FFFFFF;" width="3.135" height="431.539"/>
	
		<rect x="265.157" y="48.992" transform="matrix(-0.7311 -0.6823 0.6823 -0.7311 283.1111 635.1539)" style="fill:#FFFFFF;" width="3.135" height="425.585"/>
	
		<rect x="257.389" y="41.53" transform="matrix(-0.7232 -0.6906 0.6906 -0.7232 270.231 618.0131)" style="fill:#FFFFFF;" width="3.135" height="426.652"/>
</g>
<path style="fill:#EDBB57;" d="M83.536,393.231c-1.711-1.711-1.929-4.466-0.414-6.436c1.646-2.142,4.717-2.543,6.858-0.898
	l36.102,27.75c2.136,1.642,2.544,4.718,0.897,6.858c-1.646,2.142-4.717,2.543-6.858,0.898l-36.102-27.75
	C83.845,393.521,83.685,393.38,83.536,393.231z"/>
<g>
</g>
<g>
</g>
<g>
</g>
<g>
</g>
<g>
</g>
<g>
</g>
<g>
</g>
<g>
</g>
<g>
</g>
<g>
</g>
<g>
</g>
<g>
</g>
<g>
</g>
<g>
</g>
<g>
</g>
</svg>
