<?xml version="1.0" encoding="iso-8859-1"?>
<!-- Generator: Adobe Illustrator 19.0.0, SVG Export Plug-In . SVG Version: 6.00 Build 0)  -->
<svg version="1.1" id="Capa_1" xmlns="http://www.w3.org/2000/svg" xmlns:xlink="http://www.w3.org/1999/xlink" x="0px" y="0px"
	 viewBox="0 0 512 512" style="enable-background:new 0 0 512 512;" xml:space="preserve">
<path style="fill:#F29151;" d="M512,256c0,141.385-114.615,256-256,256c-25.412,0-49.957-3.709-73.132-10.606
	c-2.988-0.888-5.956-1.829-8.903-2.821c-32.538-11.003-62.151-28.369-87.343-50.625c-8.108-7.147-15.747-14.806-22.873-22.925
	c-22.246-25.266-39.581-54.951-50.521-87.573c-0.982-2.936-1.912-5.893-2.79-8.882C3.647,305.559,0,281.203,0,256
	C0,114.615,114.615,0,256,0S512,114.615,512,256z"/>
<circle style="fill:#F9A36F;" cx="256" cy="192.784" r="184.947"/>
<path style="fill:#9E5329;" d="M341.797,305.047c-10.48,10.48-19.884,17.063-29.372,21.473c-4.409,2.529-12.413,8.464-16.875,19.853
	c-1.546,3.96-7.095,4.002-8.746,0.094c-0.303-0.69-0.491-1.16-0.596-1.275c-0.961-2.267-2.361-4.096-4.242-5.381
	c-9.906-6.76-29.247,4.389-43.217,24.869c-13.949,20.49-17.241,42.58-7.335,49.319c1.16,0.805,4.984,2.518,8.735,4.127
	c2.654,1.149,3.062,4.504,1.254,6.311c-0.355,0.366-0.815,0.658-1.337,0.857c-10.648,4.284-19.028,12.978-22.57,23.897
	c-5.914,18.139-14.608,33.855-25.098,44.345c-2.988,2.999-6.175,5.611-9.529,7.858c-2.988-0.888-5.956-1.829-8.903-2.821
	C98.377,473.015,38.609,413.121,13.228,337.45c-0.982-2.936-1.912-5.893-2.79-8.882c2.205-3.271,4.765-6.374,7.68-9.289
	c10.512-10.501,26.227-19.184,44.387-25.078c5.778-1.881,10.94-5.12,15.141-9.331c3.751-3.751,6.719-8.255,8.725-13.26
	c1.285-3.218,5.799-3.26,7.178-0.105c1.62,3.783,3.333,7.607,4.117,8.756c6.76,9.916,28.839,6.625,49.319-7.335
	c20.501-13.96,31.639-33.322,24.889-43.217c-1.285-1.881-3.124-3.291-5.402-4.232c-0.094-0.094-0.564-0.293-1.264-0.616
	c-3.908-1.641-3.866-7.189,0.084-8.746c11.421-4.43,17.335-12.455,19.874-16.865c4.378-9.488,10.982-18.892,21.462-29.372
	c23.876-23.886,66.435-19.519,100.488,4.545l30.124,30.135C361.284,238.634,365.662,281.182,341.797,305.047z"/>
<path style="fill:#AF653D;" d="M336.854,300.105c-9.373,9.373-18.077,15.757-27.376,20.083l-0.261,0.115l-0.251,0.146
	c-4.587,2.623-12.518,8.37-17.93,18.944c-0.742-1.191-1.609-2.267-2.57-3.229c-0.784-0.784-1.641-1.494-2.56-2.121
	c-7.126-4.869-16.896-4.19-27.512,1.923c-9.059,5.214-18.077,14.012-25.422,24.775c-15.245,22.403-18.631,46.341-8.056,56.916
	c0.784,0.784,1.651,1.494,2.56,2.121c0.616,0.428,1.578,0.993,3.814,2.058c-9.718,5.663-16.99,14.566-20.438,25.203
	c-5.674,17.377-13.981,32.141-23.395,41.556c-4.253,4.253-8.809,7.523-13.49,9.979C98.377,473.015,38.609,413.121,13.228,337.45
	c2.445-4.598,5.663-9.059,9.832-13.228c9.425-9.425,24.2-17.721,41.608-23.374c6.687-2.184,12.884-5.987,17.92-11.034
	c2.832-2.821,5.256-5.977,7.262-9.425c1.034,2.215,1.599,3.176,2.038,3.814c0.627,0.909,1.337,1.766,2.121,2.55
	c10.595,10.595,34.523,7.21,56.916-8.046c15.841-10.783,27.126-25.109,29.456-37.397c1.118-5.904,0.167-11.285-2.738-15.538
	c-0.616-0.92-1.327-1.766-2.111-2.55c-0.972-0.972-2.058-1.829-3.25-2.581c10.522-5.371,16.3-13.302,18.944-17.899l0.157-0.272
	l0.125-0.282c4.284-9.268,10.648-17.962,20.062-27.366c20.052-20.062,58.263-17.941,91.032,4.974l29.257,29.278
	C354.764,241.863,356.885,280.074,336.854,300.105z"/>
<g>
	
		<rect x="440.296" y="18.175" transform="matrix(-0.7064 -0.7078 0.7078 -0.7064 752.3536 360.3304)" style="fill:#4D4D4D;" width="21.224" height="11.91"/>
	
		<rect x="434.743" y="89.711" transform="matrix(-0.7071 -0.7071 0.7071 -0.7071 693.3789 478.5394)" style="fill:#4D4D4D;" width="22.11" height="11.91"/>
	<path style="fill:#4D4D4D;" d="M427.537,71.19L416.11,59.763c-2.326-2.326-2.326-6.096,0-8.422l0,0
		c2.326-2.325,6.096-2.325,8.421,0l11.428,11.427L427.537,71.19z"/>
</g>
<path style="fill:#808080;" d="M101.366,433.204l-14.744,14.744c-8.108-7.147-15.747-14.806-22.873-22.925L78.472,410.3
	L101.366,433.204z"/>
<polygon style="fill:#353434;" points="242.686,309.954 201.719,268.976 443.368,44.143 467.531,68.305 "/>
<path style="fill:#DDDAE0;" d="M174.966,377.098l-40.392-40.392c-2.041-2.041-2.041-5.348,0-7.388l0.85-0.849
	c2.041-2.041,5.348-2.041,7.388,0l40.392,40.392c2.041,2.041,2.041,5.348,0,7.388l-0.85,0.849
	C180.315,379.138,177.007,379.138,174.966,377.098z"/>
<g>
	<path style="fill:#AF653D;" d="M430.242,2.451c5.276-5.276,17.948-1.157,23.224,4.119s1.157,9.71-4.119,14.986
		s-9.71,9.395-14.986,4.119C429.086,20.4,424.966,7.727,430.242,2.451z"/>
	<path style="fill:#AF653D;" d="M509.547,81.756c5.276-5.276,1.157-17.948-4.119-23.224c-5.276-5.276-9.71-1.157-14.986,4.119
		c-5.276,5.276-9.395,9.71-4.119,14.986C491.598,82.912,504.271,87.032,509.547,81.756z"/>
	<path style="fill:#AF653D;" d="M470.876,120.427c5.276-5.276,1.157-17.948-4.119-23.224c-5.276-5.276-9.71-1.157-14.986,4.119
		c-5.276,5.276-9.395,9.71-4.119,14.986C452.928,121.582,465.6,125.701,470.876,120.427z"/>
</g>
<g>
	<polygon style="fill:#FFFFFF;" points="127.032,374.329 124.804,372.125 151.374,345.28 452.076,51.718 454.266,53.961 
		153.583,347.505 	"/>
	<polygon style="fill:#FFFFFF;" points="118.876,366.003 116.484,363.975 141.115,334.945 446.74,46.345 448.892,48.624 
		143.331,337.165 	"/>
	<polygon style="fill:#FFFFFF;" points="139.226,386.547 137.022,384.32 163.866,357.749 457.392,57.086 459.635,59.276 
		166.091,359.958 	"/>
	<polygon style="fill:#FFFFFF;" points="147.377,394.867 145.349,392.476 174.188,368.022 462.729,62.46 465.008,64.611 
		176.347,370.3 	"/>
</g>
<g>
	<path style="fill:#353434;" d="M143.702,313.122c1.832-2.627,5.702-9.692-0.406-15.801c-7.671-7.671-23.491-2.077-33.399,7.83
		c-9.908,9.908-13.264,11.666-17.738,9.908c0,0,2.877,3.516-2.077,8.47s-29.564,29.564-36.915,22.214
		c-2.134-2.134-2.253-4.684-1.359-7.23c1.936,1.083,4.428,0.806,6.074-0.84c1.985-1.986,1.985-5.206,0-7.191
		c-1.985-1.985-5.206-1.986-7.191,0c-0.323,0.323-0.588,0.681-0.806,1.058c-1.832,2.628-5.702,9.692,0.406,15.801
		c7.671,7.671,23.491,2.077,33.399-7.83c9.908-9.908,13.264-11.666,17.738-9.908c0,0-2.877-3.516,2.077-8.47
		c4.954-4.954,29.564-29.564,36.915-22.212c2.134,2.134,2.253,4.684,1.359,7.23c-1.936-1.083-4.428-0.806-6.074,0.84
		c-1.985,1.985-1.986,5.206,0,7.191c1.985,1.985,5.206,1.985,7.191,0C143.219,313.858,143.483,313.501,143.702,313.122z"/>
	<path style="fill:#353434;" d="M198.544,367.966c2.627-1.832,9.692-5.702,15.801,0.406c7.671,7.671,2.077,23.491-7.83,33.399
		c-9.908,9.908-11.666,13.264-9.908,17.738c0,0-3.516-2.877-8.47,2.077s-29.564,29.564-22.213,36.915
		c2.134,2.134,4.684,2.253,7.23,1.359c-1.083-1.936-0.806-4.428,0.84-6.074c1.985-1.985,5.206-1.985,7.191,0
		c1.985,1.985,1.985,5.206,0,7.191c-0.323,0.323-0.681,0.588-1.058,0.806c-2.628,1.832-9.692,5.702-15.801-0.406
		c-7.671-7.671-2.077-23.491,7.83-33.399c9.908-9.908,11.666-13.264,9.908-17.738c0,0,3.516,2.877,8.47-2.077
		s29.564-29.564,22.212-36.915c-2.134-2.134-4.684-2.253-7.23-1.359c1.083,1.936,0.806,4.428-0.84,6.074
		c-1.985,1.986-5.206,1.986-7.191,0c-1.985-1.985-1.985-5.206,0-7.191C197.81,368.449,198.167,368.184,198.544,367.966z"/>
</g>
<rect x="476.921" y="54.799" transform="matrix(-0.7071 -0.7071 0.7071 -0.7071 789.3193 448.4536)" style="fill:#4D4D4D;" width="21.232" height="11.91"/>
<path style="fill:#AF653D;" d="M495.781,42.665c0.905,0.893,0.905,2.358,0,3.263l-11.54,11.54l-11.517,11.528
	c-0.905,0.893-12.934,11.457-13.839,10.564l-26.772-26.785c-0.905-0.893,9.659-12.922,10.564-13.827l11.528-11.528l11.54-11.54
	c0.893-0.893,2.358-0.893,3.263,0L495.781,42.665z"/>
<polygon style="fill:#808080;" points="152.167,399.476 112.757,425.639 101.373,433.202 78.472,410.301 86.034,398.916 
	112.197,359.505 "/>
<polygon style="fill:#60605F;" points="112.757,425.639 101.373,433.202 78.472,410.301 86.034,398.916 "/>
<g>
</g>
<g>
</g>
<g>
</g>
<g>
</g>
<g>
</g>
<g>
</g>
<g>
</g>
<g>
</g>
<g>
</g>
<g>
</g>
<g>
</g>
<g>
</g>
<g>
</g>
<g>
</g>
<g>
</g>
</svg>
