<?xml version="1.0" encoding="iso-8859-1"?>
<!-- Generator: Adobe Illustrator 19.0.0, SVG Export Plug-In . SVG Version: 6.00 Build 0)  -->
<svg version="1.1" id="Capa_1" xmlns="http://www.w3.org/2000/svg" xmlns:xlink="http://www.w3.org/1999/xlink" x="0px" y="0px"
	 viewBox="0 0 512 512" style="enable-background:new 0 0 512 512;" xml:space="preserve">
<path style="fill:#F45367;" d="M512,256c0,34.764-6.928,67.908-19.487,98.137c-17.377,41.848-45.547,78.085-81.032,105.253
	C368.379,492.398,314.483,512,256,512s-112.379-19.602-155.481-52.611c-7.325-5.611-14.346-11.609-21.013-17.962
	c-13.793-13.124-26.122-27.784-36.718-43.687c-9.112-13.678-16.938-28.275-23.312-43.635C6.928,323.887,0,290.753,0,256
	s6.928-67.887,19.477-98.105c17.377-41.859,45.547-78.106,81.042-105.284C143.621,19.602,197.517,0,256,0
	s112.379,19.602,155.481,52.611c35.485,27.167,63.655,63.404,81.032,105.253C505.072,188.092,512,221.236,512,256z"/>
<circle style="fill:#FC7385;" cx="256" cy="192.784" r="184.947"/>
<path style="fill:#4D4D4D;" d="M222.867,240.747c8.429,0,15.254,6.825,15.254,15.254c0,8.429-6.825,15.265-15.254,15.265
	c-8.429,0-15.265-6.836-15.265-15.265C207.602,247.572,214.438,240.747,222.867,240.747z"/>
<path style="fill:#C4C2C6;" d="M472.628,52.611H39.372c-10.992,0-19.895,8.903-19.895,19.895v281.6
	c6.374,15.36,14.2,29.957,23.312,43.635c10.595,15.903,22.925,30.563,36.718,43.687c6.666,6.353,13.688,12.351,21.013,17.962
	h310.962c35.485-27.167,63.655-63.404,81.032-105.253V72.505C492.513,61.513,483.61,52.611,472.628,52.611z"/>
<path style="fill:#E6E6E6;" d="M460.475,64.021H51.524c-10.376,0-18.779,8.403-18.779,18.779v265.802
	c6.017,14.498,13.403,28.277,22.003,41.187c10.001,15.011,21.639,28.849,34.658,41.237c6.292,5.997,12.92,11.658,19.834,16.955
	h293.517c33.494-25.643,60.084-59.848,76.485-99.348V82.8C479.245,72.424,470.84,64.021,460.475,64.021z"/>
<path style="fill:#4D4D4D;" d="M222.867,82.297c95.931,0,173.704,77.773,173.704,173.704s-77.773,173.704-173.704,173.704
	S49.163,351.932,49.163,256.001S126.936,82.297,222.867,82.297z"/>
<path style="fill:#353434;" d="M222.867,90.982c91.134,0,165.019,73.885,165.019,165.019S314.001,421.02,222.867,421.02
	S57.849,347.136,57.849,256.001S131.732,90.982,222.867,90.982z"/>
<circle style="fill:#4D4D4D;" cx="222.866" cy="256" r="156.766"/>
<circle style="fill:#353434;" cx="222.866" cy="256" r="148.929"/>
<circle style="fill:#4D4D4D;" cx="222.866" cy="256" r="141.479"/>
<circle style="fill:#353434;" cx="222.866" cy="256" r="134.405"/>
<circle style="fill:#4D4D4D;" cx="222.866" cy="256" r="127.687"/>
<circle style="fill:#353434;" cx="222.866" cy="256" r="121.302"/>
<circle style="fill:#4D4D4D;" cx="222.866" cy="256" r="115.242"/>
<circle style="fill:#353434;" cx="222.866" cy="256" r="109.474"/>
<circle style="fill:#4D4D4D;" cx="222.866" cy="256" r="103.999"/>
<circle style="fill:#353434;" cx="222.866" cy="256" r="98.806"/>
<circle style="fill:#4D4D4D;" cx="222.866" cy="256" r="93.863"/>
<g>
	<circle style="fill:#353434;" cx="222.866" cy="256" r="89.172"/>
	<circle style="fill:#353434;" cx="222.866" cy="256" r="84.71"/>
</g>
<path style="fill:#F7AD3E;" d="M222.867,186.251c38.463,0,69.75,31.287,69.75,69.75s-31.287,69.75-69.75,69.75
	s-69.75-31.287-69.75-69.75S184.405,186.251,222.867,186.251z"/>
<path style="fill:#E6E6E6;" d="M222.867,240.736c8.43,0,15.265,6.835,15.265,15.265c0,8.43-6.835,15.265-15.265,15.265
	c-8.43,0-15.265-6.835-15.265-15.265C207.602,247.571,214.437,240.736,222.867,240.736z"/>
<path style="fill:#C4C2C6;" d="M220.882,256.001c0-6.048,3.525-11.258,8.626-13.73c-2.01-0.974-4.257-1.536-6.64-1.536
	c-8.43,0-15.265,6.835-15.265,15.265s6.835,15.265,15.265,15.265c2.383,0,4.63-0.562,6.64-1.536
	C224.408,267.259,220.882,262.049,220.882,256.001z"/>
<g>
	
		<rect x="351.965" y="122.014" transform="matrix(-0.8592 -0.5116 0.5116 -0.8592 541.8123 650.7354)" style="fill:#62D6EA;" width="16.949" height="257.614"/>
	<path style="fill:#62D6EA;" d="M316.996,355.841l-14.845,24.934c-1.647,2.766-5.224,3.674-7.991,2.027l-18.138-10.799
		c-2.766-1.647-3.674-5.224-2.027-7.99l14.845-24.934c1.647-2.766,5.224-3.674,7.99-2.027l9.069,5.399l9.069,5.399
		C317.736,349.496,318.643,353.074,316.996,355.841z"/>
</g>
<path style="fill:#41ADD1;" d="M282.974,369.358l14.845-24.934c1.647-2.766,5.224-3.674,7.991-2.027l-8.978-5.346
	c-2.766-1.647-6.345-0.74-7.991,2.027l-14.845,24.934c-1.647,2.766-0.74,6.344,2.027,7.99l8.978,5.346
	C282.234,375.701,281.326,372.124,282.974,369.358z"/>
<path style="fill:#62D6EA;" d="M468.739,118.64l-22.593,37.948c-3.657,6.143-11.603,8.159-17.745,4.5l-10.722-6.383l-10.722-6.383
	c-6.143-3.657-8.159-11.603-4.5-17.745l22.593-37.948c3.657-6.143,11.603-8.159,17.745-4.5l21.443,12.767
	C470.382,104.551,472.397,112.496,468.739,118.64z"/>
<path style="fill:#41ADD1;" d="M415.026,138.059l22.593-37.948c3.658-6.144,11.603-8.159,17.747-4.501l-12.569-7.484
	c-6.143-3.657-14.088-1.643-17.747,4.501l-22.593,37.948c-3.658,6.144-1.643,14.088,4.5,17.747l10.722,6.383l1.848,1.1
	C413.384,152.148,411.368,144.203,415.026,138.059z"/>
<path style="fill:#62D6EA;" d="M99.265,413.017c0,13.03-8.213,24.137-19.759,28.411c-13.793-13.124-26.122-27.784-36.718-43.687
	c5.256-8.986,15.005-15.026,26.175-15.026C85.703,382.715,99.265,396.278,99.265,413.017z"/>
<path style="fill:#41ADD1;" d="M68.963,418.764L68.963,418.764c-4.184,0-7.576-3.392-7.576-7.576v-35.527
	c0-4.184,3.392-7.576,7.576-7.576l0,0c4.184,0,7.576,3.392,7.576,7.576v35.527C76.539,415.372,73.147,418.764,68.963,418.764z"/>
<g>
</g>
<g>
</g>
<g>
</g>
<g>
</g>
<g>
</g>
<g>
</g>
<g>
</g>
<g>
</g>
<g>
</g>
<g>
</g>
<g>
</g>
<g>
</g>
<g>
</g>
<g>
</g>
<g>
</g>
</svg>
